<svg width="848" height="609" viewBox="0 0 848 609" fill="none" xmlns="http://www.w3.org/2000/svg">
<path d="M33.4161 270.556C33.4161 279.507 26.1595 286.764 17.208 286.764C8.25658 286.764 1 279.507 1 270.556C1 261.604 8.25658 254.348 17.208 254.348C26.1595 254.348 33.4161 261.604 33.4161 270.556Z" fill="white"/>
<path d="M33.4161 397.725C33.4161 406.677 26.1595 413.933 17.208 413.933C8.25658 413.933 1 406.677 1 397.725C1 388.774 8.25658 381.517 17.208 381.517C26.1595 381.517 33.4161 388.774 33.4161 397.725Z" fill="white"/>
<path d="M224.175 524.878C224.175 533.83 216.918 541.086 207.967 541.086C199.015 541.086 191.759 533.83 191.759 524.878C191.759 515.927 199.015 508.67 207.967 508.67C216.918 508.67 224.175 515.927 224.175 524.878Z" fill="white"/>
<path d="M96.9925 270.556C96.9925 279.507 89.7359 286.764 80.7845 286.764C71.833 286.764 64.5764 279.507 64.5764 270.556C64.5764 261.604 71.833 254.348 80.7845 254.348C89.7359 254.348 96.9925 261.604 96.9925 270.556Z" fill="white"/>
<path d="M96.9925 397.725C96.9925 406.677 89.7359 413.933 80.7845 413.933C71.833 413.933 64.5764 406.677 64.5764 397.725C64.5764 388.774 71.833 381.517 80.7845 381.517C89.7359 381.517 96.9925 388.774 96.9925 397.725Z" fill="white"/>
<path d="M542.103 270.556C542.103 279.507 534.846 286.764 525.895 286.764C516.943 286.764 509.687 279.507 509.687 270.556C509.687 261.604 516.943 254.348 525.895 254.348C534.846 254.348 542.103 261.604 542.103 270.556Z" fill="white"/>
<path d="M542.103 397.725C542.103 406.677 534.846 413.933 525.895 413.933C516.943 413.933 509.687 406.677 509.687 397.725C509.687 388.774 516.943 381.517 525.895 381.517C534.846 381.517 542.103 388.774 542.103 397.725Z" fill="white"/>
<path d="M605.684 270.556C605.684 279.507 598.427 286.764 589.476 286.764C580.524 286.764 573.268 279.507 573.268 270.556C573.268 261.604 580.524 254.348 589.476 254.348C598.427 254.348 605.684 261.604 605.684 270.556Z" fill="white"/>
<path d="M605.684 397.725C605.684 406.677 598.427 413.933 589.476 413.933C580.524 413.933 573.268 406.677 573.268 397.725C573.268 388.774 580.524 381.517 589.476 381.517C598.427 381.517 605.684 388.774 605.684 397.725Z" fill="white"/>
<path d="M33.4161 206.958C33.4161 215.91 26.1595 223.166 17.208 223.166C8.25658 223.166 1 215.91 1 206.958C1 198.007 8.25658 190.75 17.208 190.75C26.1595 190.75 33.4161 198.007 33.4161 206.958Z" fill="white"/>
<path d="M33.4161 334.12C33.4161 343.071 26.1595 350.328 17.208 350.328C8.25658 350.328 1 343.071 1 334.12C1 325.168 8.25658 317.911 17.208 317.911C26.1595 317.911 33.4161 325.168 33.4161 334.12Z" fill="white"/>
<path d="M224.175 588.476C224.175 597.427 216.918 604.684 207.967 604.684C199.015 604.684 191.759 597.427 191.759 588.476C191.759 579.524 199.015 572.268 207.967 572.268C216.918 572.268 224.175 579.524 224.175 588.476Z" fill="white"/>
<path d="M96.9925 206.958C96.9925 215.91 89.7359 223.166 80.7845 223.166C71.833 223.166 64.5764 215.91 64.5764 206.958C64.5764 198.007 71.833 190.75 80.7845 190.75C89.7359 190.75 96.9925 198.007 96.9925 206.958Z" fill="white"/>
<path d="M96.9925 334.12C96.9925 343.071 89.7359 350.328 80.7845 350.328C71.833 350.328 64.5764 343.071 64.5764 334.12C64.5764 325.168 71.833 317.911 80.7845 317.911C89.7359 317.911 96.9925 325.168 96.9925 334.12Z" fill="white"/>
<path d="M542.103 206.958C542.103 215.91 534.846 223.166 525.895 223.166C516.943 223.166 509.687 215.91 509.687 206.958C509.687 198.007 516.943 190.75 525.895 190.75C534.846 190.75 542.103 198.007 542.103 206.958Z" fill="white"/>
<path d="M542.103 334.12C542.103 343.071 534.846 350.328 525.895 350.328C516.943 350.328 509.687 343.071 509.687 334.12C509.687 325.168 516.943 317.911 525.895 317.911C534.846 317.911 542.103 325.168 542.103 334.12Z" fill="white"/>
<path d="M542.103 270.556C542.103 279.507 534.846 286.764 525.895 286.764C516.943 286.764 509.687 279.507 509.687 270.556C509.687 261.604 516.943 254.348 525.895 254.348C534.846 254.348 542.103 261.604 542.103 270.556Z" fill="white"/>
<path d="M477.508 270.556C477.508 279.507 470.251 286.764 461.3 286.764C452.348 286.764 445.092 279.507 445.092 270.556C445.092 261.604 452.348 254.348 461.3 254.348C470.251 254.348 477.508 261.604 477.508 270.556Z" fill="white"/>
<path d="M159.605 270.556C159.605 279.507 152.348 286.764 143.397 286.764C134.445 286.764 127.189 279.507 127.189 270.556C127.189 261.604 134.445 254.348 143.397 254.348C152.348 254.348 159.605 261.604 159.605 270.556Z" fill="white"/>
<path d="M542.103 397.725C542.103 406.677 534.846 413.933 525.895 413.933C516.943 413.933 509.687 406.677 509.687 397.725C509.687 388.774 516.943 381.517 525.895 381.517C534.846 381.517 542.103 388.774 542.103 397.725Z" fill="white"/>
<path d="M477.508 397.725C477.508 406.677 470.251 413.933 461.3 413.933C452.348 413.933 445.092 406.677 445.092 397.725C445.092 388.774 452.348 381.517 461.3 381.517C470.251 381.517 477.508 388.774 477.508 397.725Z" fill="white"/>
<path d="M159.605 397.725C159.605 406.677 152.348 413.933 143.397 413.933C134.445 413.933 127.189 406.677 127.189 397.725C127.189 388.774 134.445 381.517 143.397 381.517C152.348 381.517 159.605 388.774 159.605 397.725Z" fill="white"/>
<path d="M542.103 206.958C542.103 215.91 534.846 223.166 525.895 223.166C516.943 223.166 509.687 215.91 509.687 206.958C509.687 198.007 516.943 190.75 525.895 190.75C534.846 190.75 542.103 198.007 542.103 206.958Z" fill="white"/>
<path d="M477.508 206.958C477.508 215.91 470.251 223.166 461.3 223.166C452.348 223.166 445.092 215.91 445.092 206.958C445.092 198.007 452.348 190.75 461.3 190.75C470.251 190.75 477.508 198.007 477.508 206.958Z" fill="white"/>
<path d="M159.605 206.958C159.605 215.91 152.348 223.166 143.397 223.166C134.445 223.166 127.189 215.91 127.189 206.958C127.189 198.007 134.445 190.75 143.397 190.75C152.348 190.75 159.605 198.007 159.605 206.958Z" fill="white"/>
<path d="M542.103 334.12C542.103 343.071 534.846 350.328 525.895 350.328C516.943 350.328 509.687 343.071 509.687 334.12C509.687 325.168 516.943 317.911 525.895 317.911C534.846 317.911 542.103 325.168 542.103 334.12Z" fill="white"/>
<path d="M477.508 334.12C477.508 343.071 470.251 350.328 461.3 350.328C452.348 350.328 445.092 343.071 445.092 334.12C445.092 325.168 452.348 317.911 461.3 317.911C470.251 317.911 477.508 325.168 477.508 334.12Z" fill="white"/>
<path d="M159.605 334.12C159.605 343.071 152.348 350.328 143.397 350.328C134.445 350.328 127.189 343.071 127.189 334.12C127.189 325.168 134.445 317.911 143.397 317.911C152.348 317.911 159.605 325.168 159.605 334.12Z" fill="white"/>
<path d="M605.684 206.958C605.684 215.91 598.427 223.166 589.476 223.166C580.524 223.166 573.268 215.91 573.268 206.958C573.268 198.007 580.524 190.75 589.476 190.75C598.427 190.75 605.684 198.007 605.684 206.958Z" fill="white"/>
<path d="M605.684 334.12C605.684 343.071 598.427 350.328 589.476 350.328C580.524 350.328 573.268 343.071 573.268 334.12C573.268 325.168 580.524 317.911 589.476 317.911C598.427 317.911 605.684 325.168 605.684 334.12Z" fill="white"/>
<path d="M223.185 461.314C223.185 470.266 215.929 477.522 206.977 477.522C198.026 477.522 190.769 470.266 190.769 461.314C190.769 452.363 198.026 445.106 206.977 445.106C215.929 445.106 223.185 452.363 223.185 461.314Z" fill="white"/>
<path d="M226.273 413.763V218.063H262.553V413.763H226.273Z" fill="white"/>
<path d="M319.568 413.763V252.754H283.288V218.063H392.127V252.754H355.848V413.763H319.568Z" fill="white"/>
<path d="M326.333 542.631H350.711C343.235 562.946 326.983 574.322 306.017 574.322C279.364 574.322 257.911 553.357 257.911 527.191C257.911 500.7 278.714 480.06 305.367 480.06C326.82 480.06 343.56 491.924 350.711 512.239H326.333C321.945 503.951 315.281 499.887 305.367 499.887C290.253 499.887 279.689 511.101 279.689 527.029C279.689 542.793 290.903 554.495 305.855 554.495C314.794 554.495 320.969 550.919 326.333 542.631Z" fill="white"/>
<path d="M359.487 527.354C359.487 501.025 380.777 480.06 407.756 480.06C433.922 480.06 455.212 501.35 455.212 527.354C455.212 553.195 433.759 574.322 407.431 574.322C380.94 574.322 359.487 553.195 359.487 527.354ZM407.268 554.495C421.733 554.495 433.434 542.306 433.434 527.354C433.434 511.914 421.733 499.887 406.943 499.887C392.966 499.887 381.265 512.239 381.265 527.191C381.265 542.306 392.966 554.495 407.268 554.495Z" fill="white"/>
<path d="M468.463 572.21V452.106H490.078V572.21H468.463Z" fill="white"/>
<path d="M507.665 572.21V452.106H529.28V572.21H507.665Z" fill="white"/>
<path d="M610.738 545.556H634.303C628.94 562.458 611.225 574.322 591.398 574.322C563.931 574.322 542.641 553.845 542.641 527.516C542.641 501.025 563.606 480.06 590.097 480.06C616.913 480.06 636.578 500.538 636.578 528.491C636.578 531.904 636.416 533.854 635.766 536.78H566.044C568.644 547.669 578.071 554.495 590.91 554.495C599.849 554.495 605.212 552.057 610.738 545.556ZM565.394 517.765H615.288C612.525 506.226 603.749 499.887 590.422 499.887C577.583 499.887 568.807 506.063 565.394 517.765Z" fill="white"/>
<path d="M647.108 579.523H671.649C677.987 586.511 684.163 589.112 694.239 589.112C710.329 589.112 719.43 579.848 719.43 563.271V560.345C710.979 570.259 702.528 574.322 689.851 574.322C664.173 574.322 645.645 554.332 645.645 526.541C645.645 499.887 664.498 480.06 690.014 480.06C703.015 480.06 712.604 484.448 719.43 493.549V482.173H740.07V555.145C740.07 590.087 724.143 608.127 693.427 608.127C671.486 608.127 654.421 597.725 647.108 579.523ZM692.777 554.495C708.379 554.495 718.455 543.768 718.455 527.191C718.455 510.939 707.891 499.887 692.126 499.887C677.337 499.887 667.423 510.939 667.423 527.516C667.423 543.931 677.337 554.495 692.777 554.495Z" fill="white"/>
<path d="M821.508 545.556H845.073C839.71 562.458 821.995 574.322 802.168 574.322C774.701 574.322 753.411 553.845 753.411 527.516C753.411 501.025 774.376 480.06 800.867 480.06C827.683 480.06 847.348 500.538 847.348 528.491C847.348 531.904 847.186 533.854 846.536 536.78H776.814C779.414 547.669 788.841 554.495 801.68 554.495C810.619 554.495 815.982 552.057 821.508 545.556ZM776.164 517.765H826.058C823.295 506.226 814.519 499.887 801.192 499.887C788.353 499.887 779.577 506.063 776.164 517.765Z" fill="white"/>
<path fill-rule="evenodd" clip-rule="evenodd" d="M80.7268 0C36.6949 0 1 35.6949 1 79.7268C1 123.759 36.6949 159.454 80.7269 159.454H526.379C570.411 159.454 606.106 123.759 606.106 79.7268C606.106 35.6949 570.411 0 526.379 0H80.7268ZM141.266 113.597V128.845H203.56V112.555H165.636L185.315 94.7005C199.39 81.9288 203.951 73.979 203.951 62.1196C203.951 44.2652 190.528 30.8419 172.543 30.8419C152.995 30.8419 140.614 44.3955 140.614 65.7686H157.686C157.686 54.3001 163.681 46.7414 172.674 46.7414C180.623 46.7414 186.618 53.2575 186.618 61.8589C186.618 68.1145 183.491 73.7184 175.541 81.1468L141.266 113.597ZM96.7887 79.8042C96.7887 88.7557 89.5321 96.0123 80.5807 96.0123C71.6292 96.0123 64.3726 88.7557 64.3726 79.8042C64.3726 70.8528 71.6292 63.5962 80.5807 63.5962C89.5321 63.5962 96.7887 70.8528 96.7887 79.8042ZM210.151 100.304V114.379H251.724V128.845H269.057V114.379H279.223V98.8709H269.057V32.5361H254.461L210.151 100.304ZM227.745 98.8709H251.724V61.7286L227.745 98.8709ZM285.683 99.0012V83.623H321.782V99.0012H285.683ZM356.698 48.8265V128.845H374.031V32.5361H344.578V48.8265H356.698ZM429.623 128.845V48.8265H417.503V32.5361H446.956V128.845H429.623ZM526.233 96.0123C535.185 96.0123 542.441 88.7557 542.441 79.8042C542.441 70.8528 535.185 63.5962 526.233 63.5962C517.282 63.5962 510.025 70.8528 510.025 79.8042C510.025 88.7557 517.282 96.0123 526.233 96.0123Z" fill="white"/>
<path fill-rule="evenodd" clip-rule="evenodd" d="M80 445C35.8172 445 0 480.817 0 525C0 569.183 35.8172 605 80 605C124.183 605 160 569.183 160 525C160 480.817 124.183 445 80 445ZM80.5832 541.447C89.5347 541.447 96.7913 534.19 96.7913 525.239C96.7913 516.287 89.5347 509.031 80.5832 509.031C71.6318 509.031 64.3752 516.287 64.3752 525.239C64.3752 534.19 71.6318 541.447 80.5832 541.447Z" fill="white"/>
</svg>
